<?xml version="1.0" encoding="UTF-8"?>
<svg xmlns="http://www.w3.org/2000/svg" width="1280" height="800" viewBox="0 0 1280 800"
     font-family="Inter, ui-sans-serif, system-ui, sans-serif">
  <title>Architecture with services and data stores, two color categories.</title>
  <defs>
    <marker id="arrow" viewBox="0 0 8 6" refX="8" refY="3"
            markerWidth="8" markerHeight="6" orient="auto-start-reverse">
      <path d="M 0 0 L 8 3 L 0 6 z" fill="context-stroke"/>
    </marker>
  </defs>
  <rect x="160" y="320" width="200" height="48" rx="8" ry="8"
        fill="#FFFFFF" stroke="#0F172A" stroke-width="2"/>
  <text x="260" y="344" text-anchor="middle" dominant-baseline="middle"
        font-size="16" font-weight="600" fill="#0F172A">Gateway</text>
  <rect x="540" y="200" width="200" height="48" rx="4" ry="4"
        fill="#FFFFFF" stroke="#475569" stroke-width="1.5"/>
  <text x="640" y="224" text-anchor="middle" dominant-baseline="middle"
        font-size="14" fill="#0F172A">Auth Service</text>
  <rect x="540" y="440" width="200" height="48" rx="4" ry="4"
        fill="#FFFFFF" stroke="#475569" stroke-width="1.5"/>
  <text x="640" y="464" text-anchor="middle" dominant-baseline="middle"
        font-size="14" fill="#0F172A">Order Service</text>
  <rect x="920" y="200" width="200" height="48" rx="4" ry="4"
        fill="#FFFFFF" stroke="#2563EB" stroke-width="1.5"/>
  <text x="1020" y="224" text-anchor="middle" dominant-baseline="middle"
        font-size="14" fill="#0F172A">User DB</text>
  <rect x="920" y="440" width="200" height="48" rx="4" ry="4"
        fill="#FFFFFF" stroke="#2563EB" stroke-width="1.5"/>
  <text x="1020" y="464" text-anchor="middle" dominant-baseline="middle"
        font-size="14" fill="#0F172A">Order DB</text>
  <path d="M 360 344 L 540 224" fill="none" stroke="#475569" stroke-width="1.5"
        marker-end="url(#arrow)"/>
  <path d="M 360 344 L 540 464" fill="none" stroke="#475569" stroke-width="1.5"
        marker-end="url(#arrow)"/>
  <path d="M 740 224 L 916 224" fill="none" stroke="#475569" stroke-width="1.5"
        marker-end="url(#arrow)"/>
  <path d="M 740 464 L 916 464" fill="none" stroke="#475569" stroke-width="1.5"
        marker-end="url(#arrow)"/>
  <g class="legend">
    <rect x="960" y="80" width="240" height="80" rx="4" ry="4"
          fill="#FFFFFF" stroke="#475569" stroke-width="1"/>
    <rect x="976" y="96" width="16" height="16" fill="#FFFFFF" stroke="#475569" stroke-width="1.5"/>
    <text x="1000" y="104" dominant-baseline="middle" font-size="12" fill="#0F172A">Service</text>
    <rect x="976" y="124" width="16" height="16" fill="#FFFFFF" stroke="#2563EB" stroke-width="1.5"/>
    <text x="1000" y="132" dominant-baseline="middle" font-size="12" fill="#0F172A">Data store</text>
  </g>
</svg>
