<?xml version="1.0" encoding="UTF-8"?>
<svg xmlns="http://www.w3.org/2000/svg" width="1280" height="1200" viewBox="0 0 1280 1200" font-family="Inter, ui-sans-serif, system-ui, sans-serif">
<title>DEFECT: caption rule color absent from diagram interior</title>
<rect class="bg" x="0" y="0" width="1280" height="1200" fill="#F4EFE6"/>
<g id="zone-eyebrow" transform="translate(0,56)">
  <text x="64" y="14" font-family="ui-monospace, Menlo, Consolas, monospace" font-size="12" fill="#475569" letter-spacing="0.96">DEFECT · CAPTION COLOR ABSENT</text>
</g>
<g id="zone-headline" transform="translate(0,104)">
  <text x="64" y="44" font-size="36" font-weight="700" fill="#0F172A">Caption rule miscolor</text>
</g>
<g id="zone-lede" transform="translate(0,180)">
  <text x="64" y="18" font-size="16" fill="#0F172A"><tspan x="64" dy="0">A short lede.</tspan></text>
</g>
<g id="zone-fig-label" transform="translate(0,228)">
  <text x="64" y="12" font-family="ui-monospace, Menlo, Consolas, monospace" font-size="12" fill="#475569" letter-spacing="0.96">FIG. 1 — DEFECT</text>
</g>
<g id="zone-diagram" transform="translate(0,272)">
  <g transform="translate(80,16) scale(1.0) translate(0,0)">
    <rect id="r1" x="0" y="0" width="200" height="120" fill="#0F172A"/>
    <rect id="r2" x="240" y="0" width="200" height="120" fill="#1E3A8A"/>
  </g>
</g>
<g id="zone-legend" transform="translate(0,432)">
  <rect x="64" y="6" width="16" height="16" fill="#0F172A"/>
</g>
<g id="zone-captions" transform="translate(0,488)">
  <line class="caption-rule" x1="64"  y1="0" x2="64"  y2="80" stroke="#0F172A" stroke-width="2"/>
  <line class="caption-rule" x1="464" y1="0" x2="464" y2="80" stroke="#FF00AA" stroke-width="2"/>
  <line class="caption-rule" x1="864" y1="0" x2="864" y2="80" stroke="#1E3A8A" stroke-width="2"/>
  <text x="76" y="16" font-size="14" font-weight="600" fill="#0F172A">A</text>
  <text x="476" y="16" font-size="14" font-weight="600" fill="#0F172A">B</text>
  <text x="876" y="16" font-size="14" font-weight="600" fill="#0F172A">C</text>
</g>
<g id="zone-footer" transform="translate(0,592)">
  <text x="64" y="12" font-family="ui-monospace, Menlo, Consolas, monospace" font-size="12" fill="#475569" letter-spacing="0.96">FOOTER</text>
</g>
</svg>